<svg width="335" height="106" viewBox="0 0 335 106" fill="none" xmlns="http://www.w3.org/2000/svg">
<path d="M7.896 94C7.576 94 7.304 93.888 7.08 93.664C6.856 93.44 6.744 93.168 6.744 92.848V61.6C6.744 61.248 6.856 60.96 7.08 60.736C7.304 60.512 7.576 60.4 7.896 60.4H20.76C23.256 60.4 25.432 60.8 27.288 61.6C29.144 62.368 30.584 63.552 31.608 65.152C32.632 66.72 33.144 68.688 33.144 71.056C33.144 73.456 32.632 75.44 31.608 77.008C30.584 78.544 29.144 79.696 27.288 80.464C25.432 81.232 23.256 81.616 20.76 81.616H13.608V92.848C13.608 93.168 13.496 93.44 13.272 93.664C13.08 93.888 12.808 94 12.456 94H7.896ZM13.512 76.288H20.52C22.376 76.288 23.8 75.856 24.792 74.992C25.784 74.096 26.28 72.784 26.28 71.056C26.28 69.456 25.816 68.176 24.888 67.216C23.96 66.224 22.504 65.728 20.52 65.728H13.512V76.288ZM39.5366 94C39.2166 94 38.9446 93.888 38.7206 93.664C38.4966 93.44 38.3846 93.168 38.3846 92.848V61.6C38.3846 61.248 38.4966 60.96 38.7206 60.736C38.9446 60.512 39.2166 60.4 39.5366 60.4H60.6566C61.0086 60.4 61.2966 60.512 61.5206 60.736C61.7446 60.96 61.8566 61.248 61.8566 61.6V64.768C61.8566 65.088 61.7446 65.36 61.5206 65.584C61.2966 65.808 61.0086 65.92 60.6566 65.92H44.8646V74.416H59.6006C59.9526 74.416 60.2406 74.528 60.4646 74.752C60.6886 74.944 60.8006 75.216 60.8006 75.568V78.544C60.8006 78.896 60.6886 79.184 60.4646 79.408C60.2406 79.6 59.9526 79.696 59.6006 79.696H44.8646V88.48H61.0406C61.3926 88.48 61.6806 88.592 61.9046 88.816C62.1286 89.04 62.2406 89.328 62.2406 89.68V92.848C62.2406 93.168 62.1286 93.44 61.9046 93.664C61.6806 93.888 61.3926 94 61.0406 94H39.5366ZM93.732 100.72C93.38 100.72 93.092 100.608 92.868 100.384C92.676 100.16 92.58 99.888 92.58 99.568V94H69.396C69.076 94 68.804 93.888 68.58 93.664C68.356 93.44 68.244 93.152 68.244 92.8V61.552C68.244 61.2 68.356 60.928 68.58 60.736C68.804 60.512 69.076 60.4 69.396 60.4H73.764C74.116 60.4 74.388 60.512 74.58 60.736C74.804 60.96 74.916 61.232 74.916 61.552V88H89.076V61.552C89.076 61.232 89.188 60.96 89.412 60.736C89.636 60.512 89.908 60.4 90.228 60.4H94.548C94.9 60.4 95.188 60.512 95.412 60.736C95.636 60.96 95.748 61.232 95.748 61.552V88H98.052C98.404 88 98.692 88.112 98.916 88.336C99.14 88.56 99.252 88.832 99.252 89.152V99.568C99.252 99.888 99.14 100.16 98.916 100.384C98.692 100.608 98.404 100.72 98.052 100.72H93.732ZM105.724 94C105.404 94 105.132 93.888 104.908 93.664C104.684 93.44 104.572 93.168 104.572 92.848V61.6C104.572 61.248 104.684 60.96 104.908 60.736C105.132 60.512 105.404 60.4 105.724 60.4H126.844C127.196 60.4 127.484 60.512 127.708 60.736C127.932 60.96 128.044 61.248 128.044 61.6V64.768C128.044 65.088 127.932 65.36 127.708 65.584C127.484 65.808 127.196 65.92 126.844 65.92H111.052V74.416H125.788C126.14 74.416 126.428 74.528 126.652 74.752C126.876 74.944 126.988 75.216 126.988 75.568V78.544C126.988 78.896 126.876 79.184 126.652 79.408C126.428 79.6 126.14 79.696 125.788 79.696H111.052V88.48H127.228C127.58 88.48 127.868 88.592 128.092 88.816C128.316 89.04 128.428 89.328 128.428 89.68V92.848C128.428 93.168 128.316 93.44 128.092 93.664C127.868 93.888 127.58 94 127.228 94H105.724ZM135.584 94C135.264 94 134.992 93.904 134.768 93.712C134.544 93.488 134.432 93.2 134.432 92.848V61.6C134.432 61.248 134.544 60.96 134.768 60.736C134.992 60.512 135.264 60.4 135.584 60.4H160.736C161.088 60.4 161.376 60.512 161.6 60.736C161.824 60.96 161.936 61.248 161.936 61.6V92.848C161.936 93.168 161.824 93.44 161.6 93.664C161.376 93.888 161.088 94 160.736 94H156.416C156.096 94 155.824 93.888 155.6 93.664C155.376 93.44 155.264 93.168 155.264 92.848V66.4H141.104V92.848C141.104 93.168 140.992 93.44 140.768 93.664C140.576 93.888 140.304 94 139.952 94H135.584ZM177.944 94C177.624 94 177.352 93.888 177.128 93.664C176.904 93.44 176.792 93.168 176.792 92.848V66.304H167.912C167.592 66.304 167.32 66.192 167.096 65.968C166.872 65.744 166.76 65.472 166.76 65.152V61.6C166.76 61.248 166.872 60.96 167.096 60.736C167.32 60.512 167.592 60.4 167.912 60.4H192.392C192.744 60.4 193.032 60.512 193.256 60.736C193.48 60.96 193.592 61.248 193.592 61.6V65.152C193.592 65.472 193.48 65.744 193.256 65.968C193.032 66.192 192.744 66.304 192.392 66.304H183.56V92.848C183.56 93.168 183.448 93.44 183.224 93.664C183 93.888 182.712 94 182.36 94H177.944ZM211.375 94.48C208.527 94.48 206.079 94.016 204.031 93.088C201.983 92.128 200.383 90.672 199.231 88.72C198.079 86.736 197.455 84.272 197.359 81.328C197.327 79.952 197.311 78.592 197.311 77.248C197.311 75.904 197.327 74.528 197.359 73.12C197.455 70.208 198.095 67.776 199.279 65.824C200.463 63.872 202.079 62.4 204.127 61.408C206.207 60.416 208.623 59.92 211.375 59.92C214.127 59.92 216.543 60.416 218.623 61.408C220.703 62.4 222.335 63.872 223.519 65.824C224.703 67.776 225.343 70.208 225.439 73.12C225.503 74.528 225.535 75.904 225.535 77.248C225.535 78.592 225.503 79.952 225.439 81.328C225.343 84.272 224.719 86.736 223.567 88.72C222.415 90.672 220.799 92.128 218.719 93.088C216.671 94.016 214.223 94.48 211.375 94.48ZM211.375 88.96C213.455 88.96 215.151 88.352 216.463 87.136C217.775 85.888 218.479 83.872 218.575 81.088C218.639 79.68 218.671 78.384 218.671 77.2C218.671 75.984 218.639 74.688 218.575 73.312C218.511 71.456 218.159 69.952 217.519 68.8C216.911 67.616 216.079 66.768 215.023 66.256C213.967 65.712 212.751 65.44 211.375 65.44C210.031 65.44 208.831 65.712 207.775 66.256C206.719 66.768 205.871 67.616 205.231 68.8C204.623 69.952 204.287 71.456 204.223 73.312C204.191 74.688 204.175 75.984 204.175 77.2C204.175 78.384 204.191 79.68 204.223 81.088C204.319 83.872 205.023 85.888 206.335 87.136C207.647 88.352 209.327 88.96 211.375 88.96ZM232.99 94C232.67 94 232.398 93.888 232.174 93.664C231.95 93.44 231.838 93.168 231.838 92.848V61.6C231.838 61.248 231.95 60.96 232.174 60.736C232.398 60.512 232.67 60.4 232.99 60.4H246.91C249.502 60.4 251.614 60.8 253.246 61.6C254.878 62.368 256.078 63.44 256.846 64.816C257.646 66.192 258.046 67.792 258.046 69.616C258.046 70.832 257.822 71.904 257.374 72.832C256.958 73.728 256.43 74.464 255.79 75.04C255.182 75.616 254.574 76.064 253.966 76.384C255.214 76.96 256.318 77.92 257.278 79.264C258.238 80.608 258.718 82.208 258.718 84.064C258.718 85.984 258.286 87.696 257.422 89.2C256.558 90.704 255.278 91.888 253.582 92.752C251.886 93.584 249.79 94 247.294 94H232.99ZM238.51 88.912H246.526C248.254 88.912 249.566 88.448 250.462 87.52C251.358 86.56 251.806 85.408 251.806 84.064C251.806 82.656 251.342 81.488 250.414 80.56C249.518 79.632 248.222 79.168 246.526 79.168H238.51V88.912ZM238.51 74.176H246.046C247.742 74.176 249.006 73.776 249.838 72.976C250.702 72.144 251.134 71.072 251.134 69.76C251.134 68.416 250.702 67.376 249.838 66.64C249.006 65.872 247.742 65.488 246.046 65.488H238.51V74.176Z" fill="#394712"/>
<path d="M7.31006 45C6.99006 45 6.71806 44.888 6.49406 44.664C6.27006 44.44 6.15806 44.168 6.15806 43.848V12.6C6.15806 12.248 6.27006 11.96 6.49406 11.736C6.71806 11.512 6.99006 11.4 7.31006 11.4H29.2941C29.6461 11.4 29.9181 11.512 30.1101 11.736C30.3341 11.96 30.4461 12.248 30.4461 12.6V15.96C30.4461 16.28 30.3341 16.552 30.1101 16.776C29.9181 17 29.6461 17.112 29.2941 17.112H12.8301V24.792H20.9421C24.5581 24.792 27.3901 25.688 29.4381 27.48C31.4861 29.272 32.5101 31.704 32.5101 34.776C32.5101 36.088 32.2541 37.368 31.7421 38.616C31.2621 39.832 30.5421 40.92 29.5821 41.88C28.6221 42.84 27.4221 43.608 25.9821 44.184C24.5421 44.728 22.8621 45 20.9421 45H7.31006ZM12.8301 39.912H20.2701C21.4221 39.912 22.3981 39.672 23.1981 39.192C23.9981 38.712 24.6061 38.072 25.0221 37.272C25.4381 36.472 25.6461 35.608 25.6461 34.68C25.6461 33.272 25.1981 32.104 24.3021 31.176C23.4061 30.248 22.0621 29.784 20.2701 29.784H12.8301V39.912ZM38.4351 45C38.1151 45 37.8431 44.888 37.6191 44.664C37.3951 44.44 37.2831 44.152 37.2831 43.8V12.6C37.2831 12.248 37.3951 11.96 37.6191 11.736C37.8431 11.512 38.1311 11.4 38.4831 11.4H42.8031C43.1551 11.4 43.4271 11.512 43.6191 11.736C43.8431 11.96 43.9551 12.248 43.9551 12.6V34.632L59.7471 12.168C59.8751 12.008 60.0511 11.848 60.2751 11.688C60.4991 11.496 60.7871 11.4 61.1391 11.4H65.1231C65.4431 11.4 65.7151 11.512 65.9391 11.736C66.1631 11.96 66.2751 12.248 66.2751 12.6V43.848C66.2751 44.168 66.1631 44.44 65.9391 44.664C65.7151 44.888 65.4431 45 65.1231 45H60.8031C60.4511 45 60.1631 44.888 59.9391 44.664C59.7151 44.44 59.6031 44.168 59.6031 43.848V22.248L43.8591 44.232C43.7631 44.36 43.6031 44.52 43.3791 44.712C43.1551 44.904 42.8511 45 42.4671 45H38.4351ZM74.9038 45C74.5838 45 74.3118 44.888 74.0878 44.664C73.8638 44.44 73.7518 44.168 73.7518 43.848V12.6C73.7518 12.248 73.8638 11.96 74.0878 11.736C74.3118 11.512 74.5838 11.4 74.9038 11.4H96.8878C97.2398 11.4 97.5118 11.512 97.7038 11.736C97.9278 11.96 98.0398 12.248 98.0398 12.6V15.96C98.0398 16.28 97.9278 16.552 97.7038 16.776C97.5118 17 97.2398 17.112 96.8878 17.112H80.4238V24.792H88.5358C92.1518 24.792 94.9838 25.688 97.0318 27.48C99.0798 29.272 100.104 31.704 100.104 34.776C100.104 36.088 99.8478 37.368 99.3358 38.616C98.8558 39.832 98.1358 40.92 97.1758 41.88C96.2158 42.84 95.0158 43.608 93.5758 44.184C92.1358 44.728 90.4558 45 88.5358 45H74.9038ZM80.4238 39.912H87.8638C89.0158 39.912 89.9918 39.672 90.7918 39.192C91.5918 38.712 92.1998 38.072 92.6158 37.272C93.0318 36.472 93.2398 35.608 93.2398 34.68C93.2398 33.272 92.7918 32.104 91.8958 31.176C90.9998 30.248 89.6558 29.784 87.8638 29.784H80.4238V39.912ZM127.101 45C126.781 45 126.509 44.888 126.285 44.664C126.061 44.44 125.949 44.168 125.949 43.848V17.4H115.533V23.448C115.533 27.288 115.325 30.568 114.909 33.288C114.525 36.008 113.885 38.216 112.989 39.912C112.093 41.576 110.877 42.824 109.341 43.656C107.805 44.456 105.885 44.888 103.581 44.952C103.261 44.984 102.973 44.888 102.717 44.664C102.493 44.408 102.381 44.12 102.381 43.8V40.2C102.381 39.528 102.749 39.144 103.485 39.048C104.445 38.888 105.261 38.44 105.933 37.704C106.637 36.968 107.213 35.928 107.661 34.584C108.141 33.24 108.493 31.576 108.717 29.592C108.941 27.576 109.053 25.24 109.053 22.584V12.552C109.053 12.232 109.165 11.96 109.389 11.736C109.613 11.512 109.885 11.4 110.205 11.4H131.421C131.773 11.4 132.061 11.512 132.285 11.736C132.509 11.96 132.621 12.248 132.621 12.6V43.848C132.621 44.168 132.509 44.44 132.285 44.664C132.061 44.888 131.773 45 131.421 45H127.101ZM141.279 45C140.959 45 140.687 44.888 140.463 44.664C140.239 44.44 140.127 44.152 140.127 43.8V12.6C140.127 12.248 140.239 11.96 140.463 11.736C140.687 11.512 140.975 11.4 141.327 11.4H145.647C145.999 11.4 146.271 11.512 146.463 11.736C146.687 11.96 146.799 12.248 146.799 12.6V34.632L162.591 12.168C162.719 12.008 162.895 11.848 163.119 11.688C163.343 11.496 163.631 11.4 163.983 11.4H167.967C168.287 11.4 168.559 11.512 168.783 11.736C169.007 11.96 169.119 12.248 169.119 12.6V43.848C169.119 44.168 169.007 44.44 168.783 44.664C168.559 44.888 168.287 45 167.967 45H163.647C163.295 45 163.007 44.888 162.783 44.664C162.559 44.44 162.447 44.168 162.447 43.848V22.248L146.703 44.232C146.607 44.36 146.447 44.52 146.223 44.712C145.999 44.904 145.695 45 145.311 45H141.279ZM189.508 45.48C186.66 45.48 184.212 45.016 182.164 44.088C180.116 43.128 178.516 41.672 177.364 39.72C176.212 37.736 175.588 35.272 175.492 32.328C175.46 30.952 175.444 29.592 175.444 28.248C175.444 26.904 175.46 25.528 175.492 24.12C175.588 21.208 176.228 18.776 177.412 16.824C178.596 14.872 180.212 13.4 182.26 12.408C184.34 11.416 186.756 10.92 189.508 10.92C192.26 10.92 194.676 11.416 196.756 12.408C198.836 13.4 200.468 14.872 201.652 16.824C202.836 18.776 203.476 21.208 203.572 24.12C203.636 25.528 203.668 26.904 203.668 28.248C203.668 29.592 203.636 30.952 203.572 32.328C203.476 35.272 202.852 37.736 201.7 39.72C200.548 41.672 198.932 43.128 196.852 44.088C194.804 45.016 192.356 45.48 189.508 45.48ZM189.508 39.96C191.588 39.96 193.284 39.352 194.596 38.136C195.908 36.888 196.612 34.872 196.708 32.088C196.772 30.68 196.804 29.384 196.804 28.2C196.804 26.984 196.772 25.688 196.708 24.312C196.644 22.456 196.292 20.952 195.652 19.8C195.044 18.616 194.212 17.768 193.156 17.256C192.1 16.712 190.884 16.44 189.508 16.44C188.164 16.44 186.964 16.712 185.908 17.256C184.852 17.768 184.004 18.616 183.364 19.8C182.756 20.952 182.42 22.456 182.356 24.312C182.324 25.688 182.308 26.984 182.308 28.2C182.308 29.384 182.324 30.68 182.356 32.088C182.452 34.872 183.156 36.888 184.468 38.136C185.78 39.352 187.46 39.96 189.508 39.96ZM218.515 45C218.195 45 217.923 44.888 217.699 44.664C217.475 44.44 217.363 44.168 217.363 43.848V17.304H208.483C208.163 17.304 207.891 17.192 207.667 16.968C207.443 16.744 207.331 16.472 207.331 16.152V12.6C207.331 12.248 207.443 11.96 207.667 11.736C207.891 11.512 208.163 11.4 208.483 11.4H232.963C233.315 11.4 233.603 11.512 233.827 11.736C234.051 11.96 234.163 12.248 234.163 12.6V16.152C234.163 16.472 234.051 16.744 233.827 16.968C233.603 17.192 233.315 17.304 232.963 17.304H224.131V43.848C224.131 44.168 224.019 44.44 223.795 44.664C223.571 44.888 223.283 45 222.931 45H218.515ZM240.185 45C239.865 45 239.593 44.888 239.369 44.664C239.145 44.44 239.033 44.168 239.033 43.848V12.6C239.033 12.248 239.145 11.96 239.369 11.736C239.593 11.512 239.865 11.4 240.185 11.4H261.305C261.657 11.4 261.945 11.512 262.169 11.736C262.393 11.96 262.505 12.248 262.505 12.6V15.768C262.505 16.088 262.393 16.36 262.169 16.584C261.945 16.808 261.657 16.92 261.305 16.92H245.513V25.416H260.249C260.601 25.416 260.889 25.528 261.113 25.752C261.337 25.944 261.449 26.216 261.449 26.568V29.544C261.449 29.896 261.337 30.184 261.113 30.408C260.889 30.6 260.601 30.696 260.249 30.696H245.513V39.48H261.689C262.041 39.48 262.329 39.592 262.553 39.816C262.777 40.04 262.889 40.328 262.889 40.68V43.848C262.889 44.168 262.777 44.44 262.553 44.664C262.329 44.888 262.041 45 261.689 45H240.185ZM270.044 45C269.724 45 269.452 44.904 269.228 44.712C269.004 44.488 268.892 44.2 268.892 43.848V12.6C268.892 12.248 269.004 11.96 269.228 11.736C269.452 11.512 269.724 11.4 270.044 11.4H274.412C274.764 11.4 275.036 11.512 275.228 11.736C275.452 11.96 275.564 12.248 275.564 12.6V24.984H279.74L287.564 12.264C287.724 12.008 287.932 11.8 288.188 11.64C288.476 11.48 288.844 11.4 289.292 11.4H294.044C294.364 11.4 294.604 11.496 294.764 11.688C294.956 11.88 295.052 12.12 295.052 12.408C295.052 12.568 294.988 12.76 294.86 12.984L285.788 27.624L295.724 43.368C295.82 43.464 295.868 43.64 295.868 43.896C295.868 44.184 295.756 44.44 295.532 44.664C295.34 44.888 295.084 45 294.764 45H289.82C289.404 45 289.084 44.904 288.86 44.712C288.668 44.52 288.508 44.344 288.38 44.184L279.98 30.984H275.564V43.848C275.564 44.168 275.452 44.44 275.228 44.664C275.036 44.888 274.764 45 274.412 45H270.044ZM298.985 45C298.729 45 298.489 44.904 298.265 44.712C298.073 44.52 297.977 44.28 297.977 43.992C297.977 43.864 298.009 43.72 298.073 43.56L309.641 12.6C309.737 12.28 309.913 12.008 310.169 11.784C310.457 11.528 310.841 11.4 311.321 11.4H316.553C317.033 11.4 317.401 11.528 317.657 11.784C317.913 12.008 318.105 12.28 318.233 12.6L329.801 43.56C329.833 43.72 329.849 43.864 329.849 43.992C329.849 44.28 329.753 44.52 329.561 44.712C329.369 44.904 329.145 45 328.889 45H324.713C324.265 45 323.929 44.904 323.705 44.712C323.513 44.488 323.385 44.28 323.321 44.088L321.065 38.232H306.809L304.553 44.088C304.489 44.28 304.345 44.488 304.121 44.712C303.929 44.904 303.609 45 303.161 45H298.985ZM308.489 32.712H319.385L313.913 17.88L308.489 32.712Z" fill="#394712"/>
</svg>
