<svg width="167" height="116" viewBox="0 0 167 116" fill="none" xmlns="http://www.w3.org/2000/svg">
<path d="M70.9851 0.0468998C62.9878 0.683633 56.5095 2.47191 49.8883 5.87234C40.1773 10.8578 32.141 18.6341 26.6104 28.3883C18.5482 42.5996 16.7825 59.9676 21.8068 75.8317C22.9104 79.327 24.7799 83.6351 26.5844 86.8052C31.9203 96.1801 39.619 103.821 48.7848 108.766C63.585 116.772 81.0207 117.382 96.3532 110.432C102.572 107.601 108.245 103.536 113.257 98.3206C122.461 88.7154 127.875 76.7665 129.238 62.9616C129.446 60.7804 129.446 54.4402 129.238 52.259C128.044 40.1475 123.76 29.5398 116.373 20.3546C114.892 18.4986 111.296 14.8001 109.44 13.2015C101.118 6.04845 91.4977 1.75389 80.6572 0.358493C78.606 0.10109 72.7378 -0.0885754 70.9851 0.0468998ZM77.9958 10.9391C86.8629 11.7384 95.3666 15.3014 102.403 21.181C104.247 22.7119 107.687 26.302 109.141 28.2122C114.464 35.1892 117.632 42.979 118.787 51.9339C119.112 54.4673 119.112 60.7127 118.787 63.2325C117.606 72.3364 114.49 80.0179 109.128 87.0084C107.661 88.9321 104.221 92.5222 102.403 94.0395C92.2377 102.48 79.4888 105.988 66.8956 103.794C55.393 101.789 45.2535 95.3266 38.1909 85.4911C33.3095 78.7038 30.2585 70.345 29.5055 61.7423C29.3368 59.7102 29.3368 55.524 29.5185 53.4377C30.7778 38.576 38.879 25.1504 51.2255 17.4148C55.0035 15.044 59.0151 13.3099 63.3384 12.1719C65.1949 11.6842 68.4795 11.1017 70.2581 10.9527C72.1146 10.7901 76.2171 10.7901 77.9958 10.9391Z" fill="black"/>
<path d="M71.05 11.8332C70.8034 11.8603 70.0114 11.9552 69.2974 12.0229C53.822 13.7163 39.9566 24.5002 33.7379 39.714C29.5704 49.8882 29.142 61.7829 32.5824 72.3093C34.2052 77.2948 36.7628 82.1584 39.9566 86.331C41.3976 88.2006 44.851 91.8177 46.6426 93.3215C52.1992 97.9819 58.8983 101.233 65.857 102.642C69.4532 103.374 74.1789 103.658 77.6842 103.347C86.824 102.534 95.2497 98.9573 102.286 92.9015C102.922 92.3596 104.299 91.0184 105.337 89.9346C112.283 82.6596 116.541 73.6234 117.853 63.3002C118.138 61.0784 118.242 56.54 118.073 54.264C117.074 41.3939 111.244 29.8243 101.728 21.8449C95.4055 16.5478 87.8496 13.2015 79.7095 12.0771C78.2165 11.8739 72.1536 11.6978 71.05 11.8332Z" fill="black"/>
<path d="M142.714 5.99426C141.935 6.42778 140.741 8.63603 139.871 11.2507C138.547 15.2472 137.69 20.2327 137.106 27.1284C136.859 30.163 136.898 40.7978 137.171 44.5369C137.833 53.2886 139.131 59.805 140.65 62.0403C140.974 62.5145 140.987 62.1758 140.377 71.1578C140.234 73.1628 139.767 80.1127 139.339 86.602C138.91 93.0777 138.508 99.0521 138.443 99.8785C138.313 101.653 138.417 102.1 139.04 102.642C139.754 103.252 140.858 103.509 142.467 103.428C144.025 103.36 144.623 103.198 145.194 102.696C145.96 102.019 145.96 102.073 145.687 95.8143C145.324 87.1845 144.674 71.8352 144.532 68.1773C144.454 66.3891 144.376 53.9254 144.35 40.4727C144.298 16.9677 144.233 12.0906 143.87 8.70376C143.623 6.25167 143.363 5.64203 142.714 5.99426Z" fill="black"/>
<path d="M1.28108 11.7791C1.24213 12.321 1.13827 13.9873 1.07335 15.4776C0.995459 16.9678 0.826684 19.7992 0.683875 21.7772C0.294395 27.4536 0.138603 30.7321 0.112638 33.428C0.0996551 35.7311 0.12562 36.002 0.398256 36.8149C1.12529 38.9012 2.30671 40.1882 4.02042 40.7437L4.77341 40.9875L4.73446 41.9765C4.66955 43.9409 4.0334 58.5857 3.02075 81.183C2.18986 100 2.17688 100.448 2.35864 101.125C2.72215 102.575 3.78673 103.333 5.61729 103.442C7.86329 103.563 9.2784 102.669 9.69384 100.868C9.73279 100.664 9.69384 97.3723 9.577 93.5519C9.47314 89.7315 9.33033 84.4615 9.25243 81.8604C9.17453 79.2457 9.05769 75.0731 8.99278 72.5803C8.91488 70.0876 8.74611 63.7067 8.6033 58.4232C8.46049 53.1261 8.29171 47.0704 8.2268 44.9434C8.16189 42.8164 8.13592 41.0417 8.17487 40.974C8.20083 40.9198 8.33066 40.8792 8.4475 40.8792C8.83698 40.8792 10.2521 40.1069 10.7844 39.5921C11.823 38.6167 12.4981 37.1536 12.7448 35.3382C12.8876 34.1867 12.6149 27.6432 12.1735 21.6417C11.9788 19.0135 11.5893 12.1855 11.5893 11.3049C11.5893 10.8172 11.5763 10.8037 11.1349 10.8037H10.6805V26.7762L10.3949 26.9794C9.99244 27.2775 9.47314 27.2504 9.17453 26.9117C8.9019 26.6001 8.87593 25.9227 8.66821 15.5724L8.56435 10.8037H7.47381L7.39591 14.4886C7.34398 16.5207 7.26608 20.0973 7.21415 22.441C7.13626 26.3156 7.11029 26.722 6.88959 26.9523C6.60397 27.2504 6.03273 27.2639 5.64325 26.9794L5.35763 26.7762V10.8037H4.22814L4.15025 13.879C4.09831 15.5589 4.05937 18.2548 4.05937 19.867C4.05937 24.5273 3.92954 26.6543 3.64392 26.9523C3.29339 27.3181 2.70917 27.2639 2.3846 26.8439C2.11197 26.4917 2.11197 26.3698 2.11197 18.6477V10.8037H1.73547C1.35897 10.8037 1.35897 10.8037 1.28108 11.7791Z" fill="black"/>
<path d="M156.086 14.4479C154.411 14.9898 151.984 17.1303 150.568 19.3386C149.011 21.7771 148.219 24.1886 148.076 26.9252C147.894 30.4069 148.738 34.0918 150.387 37.0045C151.205 38.4406 152.918 40.1746 154.139 40.7843C154.671 41.0417 155.203 41.2855 155.307 41.3262C155.515 41.3939 155.502 41.8545 154.931 54.6298C154.853 56.3368 154.606 61.7423 154.398 66.6194C154.178 71.4965 153.892 78.0264 153.749 81.1152C152.957 99.0115 152.905 100.461 153.074 101.125C153.451 102.588 154.528 103.347 156.359 103.442C158.579 103.563 159.89 102.751 160.383 100.976C160.461 100.732 160.448 98.6999 160.37 96.0852C160.305 93.6196 160.124 87.32 159.981 82.0635C159.838 76.8071 159.669 70.494 159.591 68.0419C159.527 65.5762 159.345 59.1818 159.202 53.817C159.072 48.4522 158.916 43.4802 158.89 42.7622L158.825 41.4617L159.942 40.8791C162.305 39.6598 164.239 37.0587 165.291 33.6989C165.927 31.6668 166.135 30.2443 166.135 27.738C166.122 25.5975 166.096 25.2317 165.784 24.0125C164.901 20.5714 162.694 17.2387 160.124 15.4369C158.709 14.4615 157.216 14.0957 156.086 14.4479Z" fill="black"/>
</svg>
