<svg width="238" height="102" viewBox="0 0 238 102" fill="none" xmlns="http://www.w3.org/2000/svg">
<path d="M7.16737 90C6.84737 90 6.57537 89.888 6.35137 89.664C6.12737 89.44 6.01537 89.168 6.01537 88.848V57.6C6.01537 57.248 6.12737 56.96 6.35137 56.736C6.57537 56.512 6.84737 56.4 7.16737 56.4H20.0314C22.5274 56.4 24.7034 56.8 26.5594 57.6C28.4154 58.368 29.8554 59.552 30.8794 61.152C31.9034 62.72 32.4154 64.688 32.4154 67.056C32.4154 69.456 31.9034 71.44 30.8794 73.008C29.8554 74.544 28.4154 75.696 26.5594 76.464C24.7034 77.232 22.5274 77.616 20.0314 77.616H12.8794V88.848C12.8794 89.168 12.7674 89.44 12.5434 89.664C12.3514 89.888 12.0794 90 11.7274 90H7.16737ZM12.7834 72.288H19.7914C21.6474 72.288 23.0714 71.856 24.0634 70.992C25.0554 70.096 25.5514 68.784 25.5514 67.056C25.5514 65.456 25.0874 64.176 24.1594 63.216C23.2314 62.224 21.7754 61.728 19.7914 61.728H12.7834V72.288ZM38.808 90C38.488 90 38.216 89.888 37.992 89.664C37.768 89.44 37.656 89.168 37.656 88.848V57.6C37.656 57.248 37.768 56.96 37.992 56.736C38.216 56.512 38.488 56.4 38.808 56.4H59.928C60.28 56.4 60.568 56.512 60.792 56.736C61.016 56.96 61.128 57.248 61.128 57.6V60.768C61.128 61.088 61.016 61.36 60.792 61.584C60.568 61.808 60.28 61.92 59.928 61.92H44.136V70.416H58.872C59.224 70.416 59.512 70.528 59.736 70.752C59.96 70.944 60.072 71.216 60.072 71.568V74.544C60.072 74.896 59.96 75.184 59.736 75.408C59.512 75.6 59.224 75.696 58.872 75.696H44.136V84.48H60.312C60.664 84.48 60.952 84.592 61.176 84.816C61.4 85.04 61.512 85.328 61.512 85.68V88.848C61.512 89.168 61.4 89.44 61.176 89.664C60.952 89.888 60.664 90 60.312 90H38.808ZM93.0034 96.72C92.6514 96.72 92.3634 96.608 92.1394 96.384C91.9474 96.16 91.8514 95.888 91.8514 95.568V90H68.6674C68.3474 90 68.0754 89.888 67.8514 89.664C67.6274 89.44 67.5154 89.152 67.5154 88.8V57.552C67.5154 57.2 67.6274 56.928 67.8514 56.736C68.0754 56.512 68.3474 56.4 68.6674 56.4H73.0354C73.3874 56.4 73.6594 56.512 73.8514 56.736C74.0754 56.96 74.1874 57.232 74.1874 57.552V84H88.3474V57.552C88.3474 57.232 88.4594 56.96 88.6834 56.736C88.9074 56.512 89.1794 56.4 89.4994 56.4H93.8194C94.1714 56.4 94.4594 56.512 94.6834 56.736C94.9074 56.96 95.0194 57.232 95.0194 57.552V84H97.3234C97.6754 84 97.9634 84.112 98.1874 84.336C98.4114 84.56 98.5234 84.832 98.5234 85.152V95.568C98.5234 95.888 98.4114 96.16 98.1874 96.384C97.9634 96.608 97.6754 96.72 97.3234 96.72H93.0034ZM104.995 90C104.675 90 104.403 89.888 104.179 89.664C103.955 89.44 103.843 89.168 103.843 88.848V57.6C103.843 57.248 103.955 56.96 104.179 56.736C104.403 56.512 104.675 56.4 104.995 56.4H126.115C126.467 56.4 126.755 56.512 126.979 56.736C127.203 56.96 127.315 57.248 127.315 57.6V60.768C127.315 61.088 127.203 61.36 126.979 61.584C126.755 61.808 126.467 61.92 126.115 61.92H110.323V70.416H125.059C125.411 70.416 125.699 70.528 125.923 70.752C126.147 70.944 126.259 71.216 126.259 71.568V74.544C126.259 74.896 126.147 75.184 125.923 75.408C125.699 75.6 125.411 75.696 125.059 75.696H110.323V84.48H126.499C126.851 84.48 127.139 84.592 127.363 84.816C127.587 85.04 127.699 85.328 127.699 85.68V88.848C127.699 89.168 127.587 89.44 127.363 89.664C127.139 89.888 126.851 90 126.499 90H104.995ZM134.855 90C134.535 90 134.263 89.904 134.039 89.712C133.815 89.488 133.703 89.2 133.703 88.848V57.6C133.703 57.248 133.815 56.96 134.039 56.736C134.263 56.512 134.535 56.4 134.855 56.4H160.007C160.359 56.4 160.647 56.512 160.871 56.736C161.095 56.96 161.207 57.248 161.207 57.6V88.848C161.207 89.168 161.095 89.44 160.871 89.664C160.647 89.888 160.359 90 160.007 90H155.687C155.367 90 155.095 89.888 154.871 89.664C154.647 89.44 154.535 89.168 154.535 88.848V62.4H140.375V88.848C140.375 89.168 140.263 89.44 140.039 89.664C139.847 89.888 139.575 90 139.223 90H134.855ZM177.216 90C176.896 90 176.624 89.888 176.4 89.664C176.176 89.44 176.064 89.168 176.064 88.848V62.304H167.184C166.864 62.304 166.592 62.192 166.368 61.968C166.144 61.744 166.032 61.472 166.032 61.152V57.6C166.032 57.248 166.144 56.96 166.368 56.736C166.592 56.512 166.864 56.4 167.184 56.4H191.664C192.016 56.4 192.304 56.512 192.528 56.736C192.752 56.96 192.864 57.248 192.864 57.6V61.152C192.864 61.472 192.752 61.744 192.528 61.968C192.304 62.192 192.016 62.304 191.664 62.304H182.832V88.848C182.832 89.168 182.72 89.44 182.496 89.664C182.272 89.888 181.984 90 181.632 90H177.216ZM198.886 90C198.566 90 198.294 89.888 198.07 89.664C197.846 89.44 197.734 89.168 197.734 88.848V57.552C197.734 57.232 197.846 56.96 198.07 56.736C198.294 56.512 198.566 56.4 198.886 56.4H203.254C203.606 56.4 203.878 56.512 204.07 56.736C204.294 56.96 204.406 57.232 204.406 57.552V68.544H209.734C213.542 68.544 216.486 69.44 218.566 71.232C220.646 72.992 221.686 75.616 221.686 79.104C221.686 81.12 221.238 82.96 220.342 84.624C219.478 86.288 218.15 87.6 216.358 88.56C214.598 89.52 212.39 90 209.734 90H198.886ZM204.406 84.672H209.494C211.19 84.672 212.502 84.16 213.43 83.136C214.358 82.08 214.822 80.72 214.822 79.056C214.822 77.328 214.358 76.032 213.43 75.168C212.534 74.304 211.222 73.872 209.494 73.872H204.406V84.672ZM226.966 90C226.646 90 226.374 89.888 226.15 89.664C225.926 89.44 225.814 89.168 225.814 88.848V57.552C225.814 57.232 225.926 56.96 226.15 56.736C226.374 56.512 226.646 56.4 226.966 56.4H231.478C231.83 56.4 232.102 56.512 232.294 56.736C232.518 56.96 232.63 57.232 232.63 57.552V88.848C232.63 89.168 232.518 89.44 232.294 89.664C232.102 89.888 231.83 90 231.478 90H226.966Z" fill="#394712"/>
<path d="M30.0987 45C29.7787 45 29.5067 44.888 29.2827 44.664C29.0587 44.44 28.9467 44.168 28.9467 43.848V17.4H18.5307V23.448C18.5307 27.288 18.3227 30.568 17.9067 33.288C17.5227 36.008 16.8827 38.216 15.9867 39.912C15.0907 41.576 13.8747 42.824 12.3387 43.656C10.8027 44.456 8.88273 44.888 6.57873 44.952C6.25873 44.984 5.97073 44.888 5.71473 44.664C5.49073 44.408 5.37873 44.12 5.37873 43.8V40.2C5.37873 39.528 5.74673 39.144 6.48273 39.048C7.44273 38.888 8.25873 38.44 8.93073 37.704C9.63473 36.968 10.2107 35.928 10.6587 34.584C11.1387 33.24 11.4907 31.576 11.7147 29.592C11.9387 27.576 12.0507 25.24 12.0507 22.584V12.552C12.0507 12.232 12.1627 11.96 12.3867 11.736C12.6107 11.512 12.8827 11.4 13.2027 11.4H34.4187C34.7707 11.4 35.0587 11.512 35.2827 11.736C35.5067 11.96 35.6187 12.248 35.6187 12.6V43.848C35.6187 44.168 35.5067 44.44 35.2827 44.664C35.0587 44.888 34.7707 45 34.4187 45H30.0987ZM45.4287 45C45.1087 45 44.8367 44.888 44.6127 44.664C44.3887 44.44 44.2767 44.168 44.2767 43.848V40.296C44.2767 39.944 44.3887 39.656 44.6127 39.432C44.8367 39.208 45.1087 39.096 45.4287 39.096H47.2047C48.1327 39.096 48.9327 38.904 49.6047 38.52C50.2767 38.104 50.9007 37.464 51.4767 36.6C52.0527 35.704 52.6287 34.568 53.2047 33.192L62.3727 12.312C62.4687 11.992 62.6287 11.768 62.8527 11.64C63.1087 11.48 63.3807 11.4 63.6687 11.4H68.1327C68.3887 11.4 68.6127 11.496 68.8047 11.688C69.0287 11.88 69.1407 12.104 69.1407 12.36C69.1407 12.52 69.1247 12.664 69.0927 12.792C69.0607 12.92 69.0127 13.048 68.9487 13.176L59.3007 35.208C58.5007 36.968 57.7487 38.472 57.0447 39.72C56.3407 40.936 55.5727 41.944 54.7407 42.744C53.9087 43.512 52.9167 44.088 51.7647 44.472C50.6447 44.824 49.2847 45 47.6847 45H45.4287ZM52.8687 36.6L40.0527 12.936C39.9567 12.744 39.9087 12.584 39.9087 12.456C39.9087 12.168 40.0207 11.928 40.2447 11.736C40.4687 11.512 40.7087 11.4 40.9647 11.4H45.6687C45.9567 11.4 46.1967 11.48 46.3887 11.64C46.6127 11.768 46.7887 11.992 46.9167 12.312L56.3727 29.976L52.8687 36.6ZM92.1395 45C91.7875 45 91.4995 44.888 91.2755 44.664C91.0835 44.44 90.9875 44.168 90.9875 43.848V32.52C90.4755 33 89.7875 33.4 88.9235 33.72C88.0915 34.04 87.1635 34.28 86.1395 34.44C85.1475 34.6 84.1715 34.68 83.2115 34.68C79.2755 34.68 76.3475 33.736 74.4275 31.848C72.5075 29.928 71.5475 27.096 71.5475 23.352V12.552C71.5475 12.232 71.6595 11.96 71.8835 11.736C72.1075 11.512 72.3795 11.4 72.6995 11.4H77.0195C77.3715 11.4 77.6595 11.512 77.8835 11.736C78.1075 11.96 78.2195 12.232 78.2195 12.552V23.016C78.2195 24.904 78.6995 26.296 79.6595 27.192C80.6195 28.088 82.2355 28.536 84.5075 28.536C85.1475 28.536 85.8355 28.488 86.5715 28.392C87.3075 28.264 88.0115 28.056 88.6835 27.768C89.3555 27.448 89.8995 27.032 90.3155 26.52C90.7635 26.008 90.9875 25.368 90.9875 24.6V12.552C90.9875 12.232 91.0835 11.96 91.2755 11.736C91.4995 11.512 91.7875 11.4 92.1395 11.4H96.4595C96.8115 11.4 97.0995 11.512 97.3235 11.736C97.5475 11.96 97.6595 12.232 97.6595 12.552V43.848C97.6595 44.168 97.5475 44.44 97.3235 44.664C97.0995 44.888 96.8115 45 96.4595 45H92.1395ZM106.433 45C106.113 45 105.841 44.888 105.617 44.664C105.393 44.44 105.281 44.168 105.281 43.848V12.552C105.281 12.2 105.393 11.928 105.617 11.736C105.841 11.512 106.113 11.4 106.433 11.4H110.801C111.153 11.4 111.425 11.512 111.617 11.736C111.841 11.96 111.953 12.232 111.953 12.552V39H121.553V12.552C121.553 12.232 121.665 11.96 121.889 11.736C122.113 11.512 122.385 11.4 122.705 11.4H127.025C127.377 11.4 127.665 11.512 127.889 11.736C128.113 11.96 128.225 12.232 128.225 12.552V39H137.777V12.552C137.777 12.232 137.889 11.96 138.113 11.736C138.337 11.512 138.625 11.4 138.977 11.4H143.297C143.649 11.4 143.921 11.512 144.113 11.736C144.337 11.96 144.449 12.232 144.449 12.552V43.848C144.449 44.168 144.337 44.44 144.113 44.664C143.921 44.888 143.649 45 143.297 45H106.433ZM153.12 45C152.8 45 152.528 44.888 152.304 44.664C152.08 44.44 151.968 44.152 151.968 43.8V12.6C151.968 12.248 152.08 11.96 152.304 11.736C152.528 11.512 152.816 11.4 153.168 11.4H157.488C157.84 11.4 158.112 11.512 158.304 11.736C158.528 11.96 158.64 12.248 158.64 12.6V34.632L174.432 12.168C174.56 12.008 174.736 11.848 174.96 11.688C175.184 11.496 175.472 11.4 175.824 11.4H179.808C180.128 11.4 180.4 11.512 180.624 11.736C180.848 11.96 180.96 12.248 180.96 12.6V43.848C180.96 44.168 180.848 44.44 180.624 44.664C180.4 44.888 180.128 45 179.808 45H175.488C175.136 45 174.848 44.888 174.624 44.664C174.4 44.44 174.288 44.168 174.288 43.848V22.248L158.544 44.232C158.448 44.36 158.288 44.52 158.064 44.712C157.84 44.904 157.536 45 157.152 45H153.12ZM189.589 45C189.269 45 188.997 44.888 188.773 44.664C188.549 44.44 188.437 44.168 188.437 43.848V12.6C188.437 12.248 188.549 11.96 188.773 11.736C188.997 11.512 189.269 11.4 189.589 11.4H210.709C211.061 11.4 211.349 11.512 211.573 11.736C211.797 11.96 211.909 12.248 211.909 12.6V15.768C211.909 16.088 211.797 16.36 211.573 16.584C211.349 16.808 211.061 16.92 210.709 16.92H194.917V25.416H209.653C210.005 25.416 210.293 25.528 210.517 25.752C210.741 25.944 210.853 26.216 210.853 26.568V29.544C210.853 29.896 210.741 30.184 210.517 30.408C210.293 30.6 210.005 30.696 209.653 30.696H194.917V39.48H211.093C211.445 39.48 211.733 39.592 211.957 39.816C212.181 40.04 212.293 40.328 212.293 40.68V43.848C212.293 44.168 212.181 44.44 211.957 44.664C211.733 44.888 211.445 45 211.093 45H189.589Z" fill="#394712"/>
</svg>
